# Blender v2.73 (sub 0) OBJ File: ''
# www.blender.org
mtllib dice.mtl
o Cube
v 0.113852 -0.113852 -0.122119
v 0.108549 -0.113533 -0.124822
v 0.108549 -0.108549 -0.126886
v 0.113533 -0.108549 -0.124822
v 0.122119 -0.113852 -0.113852
v 0.124822 -0.108549 -0.113533
v 0.126886 -0.108549 -0.108549
v 0.124822 -0.113533 -0.108549
v 0.108549 -0.126886 -0.108549
v 0.108549 -0.124822 -0.113533
v 0.113852 -0.122119 -0.113852
v 0.113533 -0.124822 -0.108549
v 0.113852 -0.122119 0.113852
v 0.108549 -0.124822 0.113533
v 0.108549 -0.126886 0.108549
v 0.113533 -0.124822 0.108549
v 0.122119 -0.113852 0.113852
v 0.124822 -0.113533 0.108549
v 0.126886 -0.108549 0.108549
v 0.124822 -0.108549 0.113533
v 0.108549 -0.108549 0.126886
v 0.108549 -0.113533 0.124822
v 0.113852 -0.113852 0.122119
v 0.113533 -0.108549 0.124822
v -0.113852 -0.122119 0.113852
v -0.113533 -0.124822 0.108549
v -0.108549 -0.126886 0.108549
v -0.108549 -0.124822 0.113533
v -0.113852 -0.113852 0.122119
v -0.108549 -0.113533 0.124822
v -0.108549 -0.108549 0.126886
v -0.113533 -0.108549 0.124822
v -0.126886 -0.108549 0.108549
v -0.124822 -0.113533 0.108549
v -0.122119 -0.113852 0.113852
v -0.124822 -0.108549 0.113533
v -0.122119 -0.113852 -0.113852
v -0.124822 -0.113533 -0.108549
v -0.126886 -0.108549 -0.108549
v -0.124822 -0.108549 -0.113533
v -0.113852 -0.113852 -0.122119
v -0.113533 -0.108549 -0.124822
v -0.108549 -0.108549 -0.126886
v -0.108549 -0.113533 -0.124822
v -0.108549 -0.126886 -0.108549
v -0.113533 -0.124822 -0.108549
v -0.113852 -0.122119 -0.113852
v -0.108549 -0.124822 -0.113533
v 0.122119 0.113852 -0.113852
v 0.124822 0.113533 -0.108549
v 0.126886 0.108549 -0.108549
v 0.124822 0.108549 -0.113533
v 0.113852 0.113852 -0.122119
v 0.113533 0.108549 -0.124822
v 0.108549 0.108549 -0.126886
v 0.108549 0.113533 -0.124822
v 0.108549 0.126886 -0.108549
v 0.113533 0.124822 -0.108549
v 0.113852 0.122119 -0.113852
v 0.108549 0.124822 -0.113533
v 0.113852 0.122119 0.113853
v 0.113533 0.124822 0.108549
v 0.108549 0.126886 0.108549
v 0.108549 0.124822 0.113533
v 0.113852 0.113852 0.122119
v 0.108549 0.113533 0.124822
v 0.108549 0.108549 0.126886
v 0.113533 0.108549 0.124822
v 0.126886 0.108549 0.108549
v 0.124822 0.113533 0.108549
v 0.122119 0.113852 0.113853
v 0.124822 0.108549 0.113533
v -0.113852 0.122119 0.113852
v -0.108549 0.124822 0.113533
v -0.108549 0.126886 0.108549
v -0.113533 0.124822 0.108549
v -0.122119 0.113852 0.113852
v -0.124822 0.113533 0.108549
v -0.126886 0.108549 0.108549
v -0.124822 0.108549 0.113533
v -0.108549 0.108549 0.126886
v -0.108549 0.113533 0.124822
v -0.113852 0.113852 0.122119
v -0.113533 0.108549 0.124822
v -0.113852 0.113852 -0.122119
v -0.108549 0.113533 -0.124822
v -0.108549 0.108549 -0.126886
v -0.113533 0.108549 -0.124822
v -0.122119 0.113852 -0.113852
v -0.124822 0.108549 -0.113533
v -0.126886 0.108549 -0.108549
v -0.124822 0.113533 -0.108549
v -0.108549 0.126886 -0.108549
v -0.108549 0.124822 -0.113533
v -0.113852 0.122119 -0.113852
v -0.113533 0.124822 -0.108549
vt 1.000000 1.000000
vt 0.000000 1.000000
vt 0.000000 0.000000
vt 1.000000 0.000000
vt 0.356417 0.499432
vt 0.375263 0.510586
vt 0.232941 0.699704
vt 0.641304 0.237742
vt 0.641304 0.261689
vt 0.397779 0.261689
vt 0.648589 0.240948
vt 0.662498 0.249716
vt 0.648589 0.258484
vt 0.006103 0.758484
vt 0.006103 0.740948
vt 0.019222 0.749716
vt 0.025825 0.744430
vt 0.007910 0.732456
vt 0.179960 0.502190
vt 0.270905 0.244430
vt 0.251911 0.232456
vt 0.373673 0.002190
vt 0.771452 0.002190
vt 0.790446 0.014163
vt 0.668684 0.244430
vt 0.992111 0.407982
vt 0.974125 0.421686
vt 0.803446 0.154631
vt 0.251911 0.266975
vt 0.270905 0.255002
vt 0.392668 0.485269
vt 0.000000 0.261689
vt 0.000000 0.237742
vt 0.243525 0.237742
vt 0.212714 0.696351
vt 0.226514 0.704519
vt 0.212714 0.713490
vt 0.375263 0.971035
vt 0.356417 0.983286
vt 0.214095 0.722288
vt 0.805340 0.450275
vt 0.813370 0.437876
vt 0.821401 0.450275
vt 0.805340 0.791831
vt 0.821401 0.791831
vt 0.813370 0.804230
vt 0.179960 0.997242
vt 0.007910 0.766975
vt 0.025825 0.755002
vt 0.801771 0.131087
vt 0.814855 0.136239
vt 0.801684 0.146273
vt 0.250811 0.258484
vt 0.250811 0.240948
vt 0.264720 0.249716
vt 0.993873 0.416340
vt 0.993786 0.431526
vt 0.980702 0.426374
vt 0.824337 0.783876
vt 0.802404 0.783876
vt 0.802404 0.458230
vt 0.205775 0.693958
vt 0.207689 0.687135
vt 0.214095 0.688550
vt 0.238301 0.705254
vt 0.232941 0.710038
vt 0.205775 0.717364
vt 0.795557 0.458230
vt 0.797562 0.450754
vt 0.205775 0.514163
vt 0.203466 0.519449
vt 0.197876 0.514163
vt 0.824337 0.458230
vt 0.829178 0.450754
vt 0.797562 0.791352
vt 0.795557 0.783876
vt 0.831184 0.783876
vt 0.829178 0.791352
vt 0.808529 0.808285
vt 0.818212 0.808285
vt 0.642941 0.230267
vt 0.649689 0.232456
vt 0.673795 0.249716
vt 0.668684 0.255002
vt 0.649689 0.266975
vt 0.197876 0.985269
vt 0.203466 0.979983
vt 0.205775 0.985269
vt 0.821484 0.131772
vt 0.827047 0.136649
vt 0.821432 0.140927
vt 0.795557 0.151526
vt 0.002314 0.769165
vt 0.000000 0.761689
vt 0.000000 0.737742
vt 0.002314 0.730267
vt 0.245162 0.269165
vt 0.243525 0.261689
vt 0.245162 0.230267
vt 0.997726 0.403704
vt 1.000000 0.411087
vt 0.999882 0.431826
vt 0.997534 0.437390
vt 0.991941 0.437876
vt 0.974073 0.430841
vt 0.375790 0.978267
vt 0.361990 0.987238
vt 0.186559 0.499432
vt 0.199678 0.508199
vt 0.199678 0.991232
vt 0.186559 1.000000
vt 0.380623 0.966252
vt 0.207689 0.725153
vt 0.642941 0.269165
vt 0.771452 0.497242
vt 0.795557 0.479983
vt 0.790446 0.485269
vt 0.994437 0.000000
vt 0.031415 0.749716
vt 0.174364 0.500000
vt 0.397779 0.237742
vt 0.399416 0.269165
vt 0.276016 0.249716
vt 0.392668 0.014163
vt 0.366925 0.000000
vt 0.764704 0.000000
vt 0.797831 0.158909
vt 0.373673 0.497242
vt 0.397779 0.479983
vt 0.001637 0.269165
vt 0.831184 0.458230
vt 0.813370 0.811382
vt 0.968510 0.425964
vt 0.803616 0.124737
vt 0.350011 0.986151
vt 0.764704 0.499432
vt 1.000000 0.004878
vt 0.380623 0.516136
vt 0.399416 0.230267
vt 0.397779 0.019449
vt 0.795557 0.019449
vt 0.174364 0.999432
vt 0.366925 0.499432
vt 0.001637 0.230267
vn -1.000000 -0.000000 -0.000000
vn -0.000000 -0.000000 1.000000
vn 0.000000 1.000000 -0.000000
vn 0.000000 0.000000 -1.000000
vn 0.000000 -1.000000 0.000000
vn 1.000000 0.000000 0.000000
vn 0.707100 0.000000 -0.707100
vn -0.707100 -0.707100 -0.000000
vn -0.577400 -0.577300 -0.577300
vn 0.577400 0.577300 0.577300
vn 0.707100 0.000000 0.707100
vn -0.707100 -0.000000 0.707100
vn -0.707100 -0.000000 -0.707100
vn 0.000000 0.707100 -0.707100
vn -0.000000 0.707100 0.707100
vn -0.707100 0.707100 -0.000000
vn 0.577400 -0.577300 -0.577300
vn 0.707100 -0.707100 0.000000
vn 0.577400 -0.577300 0.577300
vn -0.577400 -0.577400 0.577300
vn 0.707100 0.707100 0.000000
vn 0.577400 0.577300 -0.577300
vn -0.577300 0.577400 0.577400
vn -0.577400 0.577400 -0.577400
vn -0.000000 -0.707100 0.707100
vn 0.357400 -0.357400 -0.862900
vn 0.862900 -0.357400 -0.357400
vn 0.397600 -0.827000 -0.397600
vn 0.357400 -0.862900 0.357400
vn 0.862900 -0.357400 0.357400
vn 0.397600 -0.397600 0.827000
vn -0.357400 -0.862900 0.357400
vn -0.357400 -0.357400 0.862900
vn -0.827000 -0.397600 0.397600
vn -0.862900 -0.357400 -0.357400
vn -0.357400 -0.357400 -0.862900
vn -0.397600 -0.827000 -0.397600
vn 0.862900 0.357400 -0.357400
vn 0.357400 0.357400 -0.862900
vn 0.397600 0.827000 -0.397600
vn 0.357400 0.862900 0.357400
vn 0.357400 0.357400 0.862900
vn 0.827000 0.397600 0.397600
vn -0.357400 0.862900 0.357400
vn -0.862900 0.357400 0.357400
vn -0.397600 0.397600 0.827000
vn -0.357400 0.357400 -0.862900
vn -0.862900 0.357400 -0.357400
vn -0.397600 0.827000 -0.397600
vn 0.302900 -0.673900 -0.673900
vn 0.673900 -0.302900 -0.673900
vn 0.673900 -0.673900 -0.302900
vn 0.302900 -0.673900 0.673900
vn 0.673900 -0.673900 0.302900
vn 0.673900 -0.302900 0.673900
vn -0.673900 -0.673900 0.302900
vn -0.302900 -0.673900 0.673900
vn -0.673900 -0.302900 0.673900
vn -0.673900 -0.673900 -0.302900
vn -0.673900 -0.302900 -0.673900
vn -0.302900 -0.673900 -0.673900
vn 0.673900 0.673900 -0.302900
vn 0.673900 0.302900 -0.673900
vn 0.302900 0.673900 -0.673900
vn 0.673900 0.673900 0.302900
vn 0.302900 0.673900 0.673900
vn 0.673900 0.302900 0.673900
vn -0.302900 0.673900 0.673900
vn -0.673900 0.673900 0.302900
vn -0.673900 0.302900 0.673900
vn -0.302900 0.673900 -0.673900
vn -0.673900 0.302900 -0.673900
vn -0.673900 0.673900 -0.302900
vn 0.923900 -0.382700 0.000000
vn 0.382700 -0.923900 0.000000
vn 0.000000 -0.923900 -0.382700
vn 0.000000 -0.382700 -0.923900
vn 0.382700 0.000000 -0.923900
vn 0.923900 -0.000000 -0.382700
vn -0.000000 -0.382700 0.923900
vn -0.000000 -0.923900 0.382700
vn 0.923900 -0.000000 0.382700
vn 0.382700 -0.000000 0.923900
vn -0.923900 -0.382700 -0.000000
vn -0.382700 -0.923900 -0.000000
vn -0.382700 0.000000 0.923900
vn -0.923900 -0.000000 0.382700
vn -0.923900 0.000000 -0.382700
vn -0.382700 0.000000 -0.923900
vn 0.382700 0.923900 0.000000
vn 0.923900 0.382700 0.000000
vn 0.000000 0.382700 -0.923900
vn 0.000000 0.923900 -0.382700
vn -0.000000 0.923900 0.382700
vn -0.000000 0.382700 0.923900
vn -0.382700 0.923900 0.000000
vn -0.923900 0.382700 -0.000000
vn 0.000000 -0.707100 -0.707100
vn 0.397600 -0.397600 -0.827000
vn 0.827000 -0.397600 -0.397600
vn 0.357400 -0.862900 -0.357400
vn 0.397600 -0.827000 0.397600
vn 0.827000 -0.397600 0.397600
vn 0.357400 -0.357400 0.862900
vn -0.397600 -0.827000 0.397600
vn -0.397600 -0.397600 0.827000
vn -0.862900 -0.357400 0.357400
vn -0.827000 -0.397600 -0.397600
vn -0.397600 -0.397600 -0.827000
vn -0.357400 -0.862900 -0.357400
vn 0.827000 0.397600 -0.397600
vn 0.397600 0.397600 -0.827000
vn 0.357400 0.862900 -0.357400
vn 0.397600 0.827000 0.397600
vn 0.397600 0.397600 0.827000
vn 0.862900 0.357400 0.357400
vn -0.397600 0.827000 0.397600
vn -0.827000 0.397600 0.397600
vn -0.357400 0.357400 0.862900
vn -0.397600 0.397600 -0.827000
vn -0.827000 0.397600 -0.397600
vn -0.357400 0.862900 -0.357400
usemtl Material
s off
f 79/1/1 91/2/1 39/3/1
f 33/4/1 79/1/1 39/3/1
usemtl Material_dice6.bmp
f 67/3/2 81/4/2 31/1/2
f 21/2/2 67/3/2 31/1/2
usemtl Material_dice2.bmp
f 93/3/3 75/4/3 63/1/3
f 57/2/3 93/3/3 63/1/3
usemtl Material_dice5.bmp
f 3/3/4 43/4/4 87/1/4
f 55/2/4 3/3/4 87/1/4
usemtl Material_dice4.bmp
f 15/1/5 27/2/5 45/3/5
f 9/4/5 15/1/5 45/3/5
usemtl Material_dice1.bmp
f 51/4/6 69/1/6 19/2/6
f 7/3/6 51/4/6 19/2/6
usemtl Material_dice0.bmp
f 54/5/7 52/6/7 6/7/7
f 38/8/8 46/9/8 26/10/8
f 37/11/9 41/12/9 47/13/9
f 61/14/10 65/15/10 71/16/10
f 72/17/11 68/18/11 24/19/11
f 84/20/12 80/21/12 36/22/12
f 90/23/13 88/24/13 42/25/13
f 86/26/14 94/27/14 60/28/14
f 74/29/15 82/30/15 66/31/15
f 96/32/16 92/33/16 78/34/16
f 1/35/17 5/36/17 11/37/17
f 18/38/18 16/39/18 12/40/18
f 13/41/19 17/42/19 23/43/19
f 25/44/20 29/45/20 35/46/20
f 58/47/21 62/48/21 70/49/21
f 49/50/22 53/51/22 59/52/22
f 73/53/23 77/54/23 83/55/23
f 85/56/24 89/57/24 95/58/24
f 30/59/25 28/60/25 14/61/25
f 2/62/26 3/63/26 4/64/26
f 6/7/27 7/65/27 8/66/27
f 10/67/28 11/37/28 12/40/28
f 14/61/29 15/68/29 16/69/29
f 18/70/30 19/71/30 20/72/30
f 22/73/31 23/43/31 24/74/31
f 26/75/32 27/76/32 28/60/32
f 30/59/33 31/77/33 32/78/33
f 34/79/34 35/46/34 36/80/34
f 38/8/35 39/81/35 40/82/35
f 42/25/36 43/83/36 44/84/36
f 46/9/37 47/13/37 48/85/37
f 50/86/38 51/87/38 52/88/38
f 54/89/39 55/90/39 56/91/39
f 58/92/40 59/52/40 60/28/40
f 62/48/41 63/93/41 64/94/41
f 66/95/42 67/96/42 68/18/42
f 70/49/43 71/16/43 72/17/43
f 74/29/44 75/97/44 76/98/44
f 78/34/45 79/99/45 80/21/45
f 82/30/46 83/55/46 84/20/46
f 86/26/47 87/100/47 88/101/47
f 90/102/48 91/103/48 92/104/48
f 94/27/49 95/58/49 96/105/49
f 2/62/50 1/35/50 11/37/50
f 4/64/51 6/7/51 5/36/51
f 8/66/52 12/40/52 11/37/52
f 22/73/53 14/61/53 13/41/53
f 18/38/54 17/106/54 13/107/54
f 24/19/55 23/108/55 17/109/55
f 26/75/56 25/44/56 35/46/56
f 30/59/57 29/45/57 25/44/57
f 32/78/58 36/80/58 35/46/58
f 38/8/59 37/11/59 47/13/59
f 40/82/60 42/25/60 41/12/60
f 44/84/61 48/85/61 47/13/61
f 50/86/62 49/110/62 59/111/62
f 54/89/63 53/51/63 49/50/63
f 56/91/64 60/28/64 59/52/64
f 62/48/65 61/14/65 71/16/65
f 66/95/66 65/15/66 61/14/66
f 68/18/67 72/17/67 71/16/67
f 74/29/68 73/53/68 83/55/68
f 78/34/69 77/54/69 73/53/69
f 80/21/70 84/20/70 83/55/70
f 86/26/71 85/56/71 95/58/71
f 88/101/72 90/102/72 89/57/72
f 96/105/73 95/58/73 89/57/73
f 19/112/74 18/38/74 8/66/74
f 9/113/75 12/40/75 16/39/75
f 45/114/76 48/85/76 10/115/76
f 3/116/77 2/117/77 44/84/77
f 55/90/78 54/89/78 4/118/78
f 7/65/79 6/7/79 52/6/79
f 31/77/80 30/59/80 22/73/80
f 15/68/81 14/61/81 28/60/81
f 69/119/82 72/17/82 20/72/82
f 21/120/83 24/19/83 68/18/83
f 39/81/84 38/8/84 34/121/84
f 27/122/85 26/10/85 46/9/85
f 81/123/86 84/20/86 32/124/86
f 33/125/87 36/22/87 80/21/87
f 91/126/88 90/23/88 40/82/88
f 43/83/89 42/25/89 88/24/89
f 63/93/90 62/48/90 58/47/90
f 51/87/91 50/86/91 70/49/91
f 87/100/92 86/26/92 56/91/92
f 57/127/93 60/28/93 94/27/93
f 75/97/94 74/29/94 64/128/94
f 81/123/95 67/129/95 66/31/95
f 93/130/96 96/32/96 76/98/96
f 79/99/97 78/34/97 92/33/97
f 48/85/98 44/84/98 2/117/98
f 4/64/7 54/5/7 6/7/7
f 34/121/8 38/8/8 26/10/8
f 20/72/11 72/17/11 24/19/11
f 32/124/12 84/20/12 36/22/12
f 40/82/13 90/23/13 42/25/13
f 56/91/14 86/26/14 60/28/14
f 64/128/15 74/29/15 66/31/15
f 76/98/16 96/32/16 78/34/16
f 8/66/18 18/38/18 12/40/18
f 50/86/21 58/47/21 70/49/21
f 22/73/25 30/59/25 14/61/25
f 1/35/99 2/62/99 4/64/99
f 5/36/100 6/7/100 8/66/100
f 9/113/101 10/67/101 12/40/101
f 13/41/102 14/61/102 16/69/102
f 17/109/103 18/70/103 20/72/103
f 21/131/104 22/73/104 24/74/104
f 25/44/105 26/75/105 28/60/105
f 29/45/106 30/59/106 32/78/106
f 33/132/107 34/79/107 36/80/107
f 37/11/108 38/8/108 40/82/108
f 41/12/109 42/25/109 44/84/109
f 45/114/110 46/9/110 48/85/110
f 49/110/111 50/86/111 52/88/111
f 53/51/112 54/89/112 56/91/112
f 57/127/113 58/92/113 60/28/113
f 61/14/114 62/48/114 64/94/114
f 65/15/115 66/95/115 68/18/115
f 69/119/116 70/49/116 72/17/116
f 73/53/117 74/29/117 76/98/117
f 77/54/118 78/34/118 80/21/118
f 81/123/119 82/30/119 84/20/119
f 85/56/120 86/26/120 88/101/120
f 89/57/121 90/102/121 92/104/121
f 93/133/122 94/27/122 96/105/122
f 10/67/50 2/62/50 11/37/50
f 1/35/51 4/64/51 5/36/51
f 5/36/52 8/66/52 11/37/52
f 23/43/53 22/73/53 13/41/53
f 16/39/54 18/38/54 13/107/54
f 20/72/55 24/19/55 17/109/55
f 34/79/56 26/75/56 35/46/56
f 28/60/57 30/59/57 25/44/57
f 29/45/58 32/78/58 35/46/58
f 46/9/59 38/8/59 47/13/59
f 37/11/60 40/82/60 41/12/60
f 41/12/61 44/84/61 47/13/61
f 58/47/62 50/86/62 59/111/62
f 52/134/63 54/89/63 49/50/63
f 53/51/64 56/91/64 59/52/64
f 70/49/65 62/48/65 71/16/65
f 64/94/66 66/95/66 61/14/66
f 65/15/67 68/18/67 71/16/67
f 82/30/68 74/29/68 83/55/68
f 76/98/69 78/34/69 73/53/69
f 77/54/70 80/21/70 83/55/70
f 94/27/71 86/26/71 95/58/71
f 85/56/72 88/101/72 89/57/72
f 92/104/73 96/105/73 89/57/73
f 7/65/74 19/112/74 8/66/74
f 15/135/75 9/113/75 16/39/75
f 9/136/76 45/114/76 10/115/76
f 43/83/77 3/116/77 44/84/77
f 3/137/78 55/90/78 4/118/78
f 51/138/79 7/65/79 52/6/79
f 21/131/80 31/77/80 22/73/80
f 27/76/81 15/68/81 28/60/81
f 19/71/82 69/119/82 20/72/82
f 67/96/83 21/120/83 68/18/83
f 33/139/84 39/81/84 34/121/84
f 45/114/85 27/122/85 46/9/85
f 31/140/86 81/123/86 32/124/86
f 79/99/87 33/125/87 80/21/87
f 39/81/88 91/126/88 40/82/88
f 87/141/89 43/83/89 88/24/89
f 57/142/90 63/93/90 58/47/90
f 69/119/91 51/87/91 70/49/91
f 55/90/92 87/100/92 56/91/92
f 93/133/93 57/127/93 94/27/93
f 63/143/94 75/97/94 64/128/94
f 82/30/95 81/123/95 66/31/95
f 75/97/96 93/130/96 76/98/96
f 91/144/97 79/99/97 92/33/97
f 10/115/98 48/85/98 2/117/98
