# Blender v2.73 (sub 0) OBJ File: 'house.blend'
# www.blender.org
mtllib house.mtl
o Cube
v 0.026681 -0.034780 0.026448
v 0.026684 -0.035842 -0.024987
v 0.026681 0.019523 0.026027
v 0.026681 0.018461 -0.025408
v 0.027703 0.019852 0.029372
v 0.029409 0.018663 -0.028230
v 0.027742 0.025789 0.029309
v 0.029448 0.024599 -0.028293
v -0.026680 -0.034780 0.026448
v -0.026683 -0.035842 -0.024987
v -0.025421 0.019523 0.026027
v -0.026944 0.018461 -0.025408
v -0.028570 0.019852 0.029372
v -0.030276 0.018663 -0.028230
v -0.028609 0.025789 0.029309
v -0.030315 0.024599 -0.028293
v 0.000001 0.019691 0.025612
v 0.000001 -0.034612 0.026033
v 0.000001 0.018629 -0.025822
v 0.000001 -0.035674 -0.025401
v 0.000001 0.020056 0.028869
v 0.000001 0.018867 -0.028733
v 0.000001 0.053027 0.028229
v 0.000001 0.051850 -0.028792
vt 0.791127 0.402369
vt 1.000000 0.402369
vt 1.000000 0.551777
vt 0.309658 0.450619
vt 0.309658 0.852989
vt 0.173651 0.852989
vt 0.029760 0.025497
vt 0.029760 0.427866
vt 0.000000 0.450619
vt 0.338393 0.852989
vt 0.338393 0.402369
vt 0.358692 0.402369
vt 0.000000 0.000000
vt 0.169197 0.000000
vt 0.169196 0.427866
vt 0.169196 0.450619
vt 0.477830 0.402369
vt 0.477830 0.000000
vt 0.617266 0.000000
vt 1.000000 0.701184
vt 1.000000 0.850592
vt 0.791127 0.850592
vt 0.577502 0.404646
vt 0.577502 0.850712
vt 0.358692 0.852989
vt 0.790926 0.181296
vt 0.964585 0.184649
vt 0.822099 0.362592
vt 0.617266 0.181296
vt 0.648440 0.000000
vt 0.173650 0.450619
vt 0.791128 0.701185
vt 0.789488 0.181296
vt 0.791128 0.551777
vt 0.169197 0.025497
vt 0.617266 0.402369
vt 0.790926 0.362592
vn 0.342800 -0.882700 -0.321500
vn 0.579000 -0.588600 -0.564100
vn 0.000000 -0.712200 -0.702000
vn 0.396600 -0.852700 0.340000
vn 0.572200 -0.569900 0.589600
vn 0.595900 -0.570100 -0.565500
vn 0.566100 -0.550100 0.613900
vn 0.727900 0.302600 -0.615300
vn -0.000100 -0.662000 0.749400
vn 0.000000 -0.685400 -0.728200
vn 0.000100 -0.673700 -0.739000
vn 0.000100 -0.699100 0.715000
vn 0.000400 -0.661900 0.749600
vn 0.006000 0.808600 -0.588300
vn 0.006300 0.829000 0.559200
vn 0.702400 0.312900 0.639300
vn -0.577500 -0.589900 -0.564300
vn -0.335200 -0.887000 -0.317500
vn -0.574000 -0.566700 0.591100
vn -0.320400 -0.872900 0.367800
vn -0.567900 -0.555400 0.607400
vn -0.595800 -0.572000 -0.563700
vn -0.701200 0.318700 0.637700
vn -0.726300 0.308100 -0.614400
usemtl Material
s 1
f 4/1/1 2/2/2 20/3/3
f 4/4/1 3/5/4 1/6/5
f 3/7/4 4/8/1 6/9/6
f 5/10/7 6/11/6 8/12/8
f 3/7/4 5/13/7 21/14/9
f 4/8/1 19/15/10 22/16/11
f 18/17/12 20/18/3 2/19/2
f 3/20/4 17/21/13 18/22/12
f 24/23/14 23/24/15 7/25/16
f 22/26/11 24/27/14 8/28/8
f 21/29/9 5/19/7 7/30/16
f 20/3/3 10/2/17 12/1/18
f 12/4/18 10/31/17 9/6/19
f 11/7/20 13/13/21 14/9/22
f 13/10/21 15/25/23 16/12/24
f 21/14/9 13/13/21 11/7/20
f 12/8/18 14/9/22 22/16/11
f 10/19/17 20/18/3 18/17/12
f 11/20/20 9/32/19 18/22/12
f 15/25/23 23/24/15 24/23/14
f 16/28/24 24/27/14 22/26/11
f 21/29/9 23/33/15 15/30/23
f 19/34/10 4/1/1 20/3/3
f 2/31/2 4/4/1 1/6/5
f 5/13/7 3/7/4 6/9/6
f 7/25/16 5/10/7 8/12/8
f 17/35/13 3/7/4 21/14/9
f 6/9/6 4/8/1 22/16/11
f 1/36/5 18/17/12 2/19/2
f 1/32/5 3/20/4 18/22/12
f 8/12/8 24/23/14 7/25/16
f 6/37/6 22/26/11 8/28/8
f 23/33/15 21/29/9 7/30/16
f 19/34/10 20/3/3 12/1/18
f 11/5/20 12/4/18 9/6/19
f 12/8/18 11/7/20 14/9/22
f 14/11/22 13/10/21 16/12/24
f 17/35/13 21/14/9 11/7/20
f 19/15/10 12/8/18 22/16/11
f 9/36/19 10/19/17 18/17/12
f 17/21/13 11/20/20 18/22/12
f 16/12/24 15/25/23 24/23/14
f 14/37/22 16/28/24 22/26/11
f 13/19/21 21/29/9 15/30/23
